# xmcd
#
# Track frame offsets:
#	150
#	16357
#	32028
#	48286
#	66747
#	80667
#	92476
#	106319
#	117102
#	131451
#	146843
#	162324
#	175318
#	191991
#	206814
#
# Disc length: 2942 seconds
#
# Revision: 1
# Processed by: cddbd v1.5.2PL0 Copyright (c) Steve Scherf et al.
# Submitted via: EasyCDDAExtractor 16.0.6.1
#
DISCID=db0b7c0f
DTITLE=Διάφοροι - Του αετού ο Γιός Τα καλύτερα ζεϊμπέκικα Cd3
DYEAR=1900
DGENRE=
TTITLE0=Καλύτερα μαζί σου και τρελός (Στράτος Διονυσίου)
TTITLE1=Τα βασανά μου (Γιάννης Πάριος)
TTITLE2=Χαμένη πολιτεία (Βασίλης Καρράς)
TTITLE3=Σάββατο έκλαψα για σένα (Γιάννης Πλούταρχος)
TTITLE4=Μήπως είμαι τρελός (Νότης Σφακιανάκης)
TTITLE5=Με βρήκε δύσκολη στιγμή (Τόλης Βοσκόπουλος)
TTITLE6=Ανοίχτε τα τρελάδικα (Ελένη Βιτάλη)
TTITLE7=Θα τα βροντήξω (Πίτσα Παπαδοπούλου)
TTITLE8=Δεν θα ξαναγαπήσω (Στέλιος Καζαντζίδης)
TTITLE9=Τα δυο σου χέρια πήρανε (Γρηγόρης Μπιθικώτσης)
TTITLE10=Καρδιά παραπονιάρα (Σταμάτης Κόκοτας)
TTITLE11=Αλήτης (Μανώλης Μητσιάς)
TTITLE12=Μες την πολλή σκοτούρα μου (Πόλυ Πάνου)
TTITLE13=Εγώ είμαι ένα παλιόπαιδο (Πάνος Γαβαλάς)
TTITLE14=Η διπρόσωπη (Αντώνης Ρεπάνης)
EXTD=
EXTT0=
EXTT1=
EXTT2=
EXTT3=
EXTT4=
EXTT5=
EXTT6=
EXTT7=
EXTT8=
EXTT9=
EXTT10=
EXTT11=
EXTT12=
EXTT13=
EXTT14=
PLAYORDER=
